<svg width="65" height="56" viewBox="0 0 65 56" fill="none" xmlns="http://www.w3.org/2000/svg">
<path d="M32.5 55.7143C31.2169 55.7143 30.1786 54.676 30.1786 53.3929V2.32143C30.1786 1.03943 31.2169 0 32.5 0C33.7831 0 34.8214 1.03943 34.8214 2.32143V53.3929C34.8214 54.676 33.7831 55.7143 32.5 55.7143Z" fill="white"/>
<path d="M22.4412 51.0714C21.1581 51.0714 20.1198 50.0331 20.1198 48.75V6.96425C20.1198 5.68225 21.1581 4.64282 22.4412 4.64282C23.7244 4.64282 24.7627 5.68225 24.7627 6.96425V48.75C24.7627 50.0331 23.7244 51.0714 22.4412 51.0714Z" fill="white"/>
<path d="M12.3802 46.4286C11.0971 46.4286 10.0588 45.3903 10.0588 44.1072V11.6072C10.0588 10.3252 11.0971 9.28577 12.3802 9.28577C13.6633 9.28577 14.7016 10.3252 14.7016 11.6072V44.1072C14.7016 45.3903 13.6633 46.4286 12.3802 46.4286Z" fill="white"/>
<path d="M2.32143 39.4643C1.0383 39.4643 0 38.426 0 37.1429V18.5714C0 17.2894 1.0383 16.25 2.32143 16.25C3.60456 16.25 4.64286 17.2894 4.64286 18.5714V37.1429C4.64286 38.426 3.60456 39.4643 2.32143 39.4643Z" fill="white"/>
<path d="M62.6786 39.4643C61.3954 39.4643 60.3571 38.426 60.3571 37.1429V18.5714C60.3571 17.2894 61.3954 16.25 62.6786 16.25C63.9617 16.25 65 17.2894 65 18.5714V37.1429C65 38.426 63.9617 39.4643 62.6786 39.4643Z" fill="white"/>
<path d="M52.6198 46.4286C51.3367 46.4286 50.2984 45.3903 50.2984 44.1072V11.6072C50.2984 10.3252 51.3367 9.28577 52.6198 9.28577C53.9029 9.28577 54.9412 10.3252 54.9412 11.6072V44.1072C54.9412 45.3903 53.9029 46.4286 52.6198 46.4286Z" fill="white"/>
<path d="M42.5588 51.0714C41.2756 51.0714 40.2373 50.0331 40.2373 48.75V6.96425C40.2373 5.68225 41.2756 4.64282 42.5588 4.64282C43.8419 4.64282 44.8802 5.68225 44.8802 6.96425V48.75C44.8802 50.0331 43.8419 51.0714 42.5588 51.0714Z" fill="white"/>
</svg>
